<svg width="471.534" height="471.534" viewBox="0 0 124.76 124.76" xmlns="http://www.w3.org/2000/svg"><defs><linearGradient id="a" x1="102.87" x2="8.539" y1="168.58" y2="80.452" gradientUnits="userSpaceOnUse"><stop stop-color="#4fca6a" offset="0"/><stop stop-color="#4fca6a" stop-opacity="0" offset="1"/></linearGradient></defs><g opacity=".48" style="mix-blend-mode:lighten"><path d="M118.509 45.5l-10.76-.867-12.52-1.239-10.65 10.055-7.466 2.714-44.145-40.93L3.76 3.859l2.714 18.024 44.683 51.32 10.587-2.157-43.864 38.212 1.002 8.45 11.537 4.17 19.883-13.895 2.93-5.737 7.177-1.087 22.262-14.325 27.561-37.386z" fill="#6c5d53" fill-opacity=".436"/><path d="M76.981 64.945c0-.104.085-.19.19-.19a.189.189 0 11-.19.19zM53.484 55.306c.228-.092.646-.094.945-.004.463.138.407.16-.41.165-.721.003-.848-.035-.535-.161z" fill="#00f" fill-opacity=".124"/></g><path d="M123.29 122.09l-10.759-.867-12.521-1.239-10.65 10.055-7.466 2.714-44.145-40.93L8.541 80.449l2.715 18.024 44.683 51.32 10.587-2.157-43.864 38.212 1.002 8.45 11.537 4.17 19.883-13.895 2.929-5.737 7.177-1.087 22.262-14.325 27.561-37.386z" fill="url(#a)" transform="translate(-5.311 -78.18)"/></svg>